<?xml version="1.0" encoding="utf-8"?>
<!-- Generator: Adobe Illustrator 24.0.0, SVG Export Plug-In . SVG Version: 6.00 Build 0)  -->
<svg version="1.1" id="Layer_1" xmlns="http://www.w3.org/2000/svg" xmlns:xlink="http://www.w3.org/1999/xlink" x="0px" y="0px"
	 viewBox="0 0 520.06 390.04" style="enable-background:new 0 0 520.06 390.04;" xml:space="preserve">
<style type="text/css">
	.st0{fill:#FFD900;}
	.st1{fill:none;}
</style>
<g>
	<path class="st0" d="M117.03,309.36c11.94,0,21.66,9.72,21.66,21.66s-9.72,21.66-21.66,21.66s-21.66-9.72-21.66-21.66
		S105.09,309.36,117.03,309.36 M117.03,298.02c-18.23,0-33,14.77-33,33s14.77,33,33,33s33-14.77,33-33S135.26,298.02,117.03,298.02
		L117.03,298.02z"/>
</g>
<g>
	<path class="st0" d="M427.53,308.86c12.22,0,22.16,9.94,22.16,22.16s-9.94,22.16-22.16,22.16s-22.16-9.94-22.16-22.16
		S415.31,308.86,427.53,308.86 M427.53,297.52c-18.5,0-33.5,15-33.5,33.5s15,33.5,33.5,33.5s33.5-15,33.5-33.5
		S446.03,297.52,427.53,297.52L427.53,297.52z"/>
</g>
<path d="M497.06,348.17c-7.02,0.68-14.03,1.52-21.07,1.96c-2.71,0.17-4.39,0.64-5.86,3.32c-9.21,16.66-23.39,25.7-42.53,25.79
	c-19.16,0.09-33.38-8.88-42.74-25.46c-1.52-2.69-3.09-3.66-6.17-3.65c-70.94,0.08-141.87,0.07-212.81-0.03
	c-3.24,0-4.79,1.08-6.46,3.94c-9.54,16.36-23.77,25.39-42.93,25.2c-18.72-0.18-32.73-9.03-41.9-25.19c-1.8-3.18-3.65-4.01-6.95-3.92
	c-7.15,0.2-14.32,0-21.48,0.05c-9.36,0.07-16.28-3.9-20.76-12.17c-0.43-0.8-1.53-1.23-2.33-1.84c0-5,0-10,0-15
	c0.92-1.37,2.22-2.62,2.72-4.12c3.79-11.53,6.47-23.53,11.29-34.6c11.78-27.03,33.02-41.28,62.48-43.2c4.63-0.3,9.25-0.6,14.61-0.96
	c-2.36-4.8-4.45-9.08-6.58-13.34c-8.65-17.26-17.46-34.45-25.79-51.86c-1.12-2.34-0.79-6.39,0.58-8.58c1.1-1.76,5.04-2.97,7.27-2.46
	c2.27,0.52,4.66,3.1,5.83,5.38c10.94,21.32,21.63,42.78,32.4,64.19c0.44,0.88,0.95,1.73,1.65,2.99c1.57-0.78,3.04-1.4,4.41-2.2
	c15.09-8.82,30.17-17.66,45.24-26.5c5.02-2.95,9.45-2.43,11.84,1.41c2.6,4.17,1.14,8.39-4.11,11.51
	c-8.16,4.85-16.35,9.62-24.52,14.44c-1.37,0.81-2.68,1.72-3.77,3.53c58.24-2.28,116.49-4.57,175.26-6.87
	c-1.37-10.25-2.7-20.22-4.03-30.2c-0.07-0.49-0.19-0.98-0.26-1.48c-1.57-10.99-1.57-11-12.46-10.98
	c-21.47,0.04-43.07-1.14-64.14,4.11c-11.42,2.85-22.54,6.91-33.78,10.47c-1.58,0.5-3.05,1.35-4.62,1.88
	c-4.54,1.52-8.36-0.04-9.96-3.99c-1.59-3.91-0.14-8.15,4.28-9.81c11.03-4.16,21.99-9.12,33.44-11.45c15.9-3.24,32.18-5.22,48.4-6.2
	c17.1-1.03,34.31,0.02,51.46-0.29c29.74-0.53,55.09,9.46,76.02,30.64c2.93,2.96,6.01,5.77,8.96,8.7
	c8.36,8.3,17.09,15.33,28.63,19.78c19.26,7.42,31.84,22.4,38.49,42.12c0.59,1.75,1.82,3.28,2.76,4.91
	C497.06,301.5,497.06,324.83,497.06,348.17z M335.86,244.95c-7.52,0.38-14.45,0.81-21.38,1.07c-41.94,1.59-83.88,3.22-125.83,4.6
	c-4.13,0.14-5.21,1.84-5.39,5.27c-0.65,12.29-1.85,24.58-1.83,36.87c0.02,12.87,2.55,25.44,7.72,37.39
	c1.46,3.36,3.13,5.01,7.28,4.97c28.82-0.25,57.65,0.06,86.47-0.22c15.79-0.15,28.91-6.59,37.85-19.79
	C335.02,294.05,336.22,270.05,335.86,244.95z M482.79,334.53c0-10.95-0.13-21.74,0.08-32.52c0.07-3.46-1.3-4.36-4.46-5.05
	c-15.59-3.39-25.76-12.9-29.33-28.49c-1.31-5.74-0.98-11.89-1.05-17.86c-0.09-7.23-0.96-8.4-8.36-9.31c-0.99-0.12-2-0.13-2.99-0.1
	c-21.14,0.73-42.28,1.44-63.41,2.23c-7.28,0.27-14.55,0.74-22.27,1.14c0.48,32.77-2.41,64.44-26.81,90.01c18.67,0,36.67,0,54.68,0
	c-0.7-33.73,25.35-50.59,44.29-51.7c12.71-0.75,24.19,2.23,34.11,10.14c13.24,10.55,19,24.79,18.79,41.72
	c1.57,0.09,2.71,0.22,3.85,0.2C480.7,334.94,481.49,334.73,482.79,334.53z M174.55,334.7c-10.66-27.13-9.49-54.78-6.16-83.06
	c-2.33,0-4.12-0.06-5.91,0.01c-15.65,0.6-31.3,1.12-46.95,1.87c-8.14,0.39-16.26,1.16-24.39,1.79c-3.63,0.28-5.44,1.69-5.27,5.94
	c0.18,4.59-0.29,9.38-1.47,13.82c-4.23,15.83-16.55,25.84-32.96,27.69c-2.14,0.24-5.42,1.21-5.99,2.69
	c-2.63,6.82-4.65,13.89-6.56,20.96c-1.21,4.46,1.09,8.28,5.26,8.45c7.94,0.32,15.9,0.09,23.79,0.09
	c3.4-31.06,19.02-49.75,42.96-51.93c11.83-1.08,22.95,0.95,32.86,7.76c15.36,10.55,22,25.64,21.77,43.9
	C168.74,334.7,171.32,334.7,174.55,334.7z M420.17,226.53c-17.58-24.87-56.51-44.26-76.62-38.32c1.85,13.55,3.71,27.15,5.62,41.15
	C373.01,228.42,396.38,227.48,420.17,226.53z M150.09,331.22c0.09-18.43-14.41-33.19-32.68-33.29c-18.71-0.1-33.68,14.51-33.7,32.9
	c-0.02,18.23,14.72,33.28,32.81,33.49C134.94,364.53,150,349.67,150.09,331.22z M394.22,330.95c-0.09,17.97,14.97,33.23,32.91,33.37
	c18.08,0.14,33.47-15.07,33.66-33.29c0.19-17.6-14.96-32.99-32.59-33.1C409.11,297.8,394.31,312.18,394.22,330.95z M463.43,253.26
	c-2.58,14.24,6.06,27.81,17.4,28C477.96,270.32,472.39,261.21,463.43,253.26z M70.17,264.39c-8.42,5.97-14.63,13.16-18.8,22.85
	C63.34,285.45,70.89,276.16,70.17,264.39z"/>
<g>
	<path class="st1" d="M116.68,322.83c-4.58,0.1-8.25,3.75-8.26,8.24c-0.01,4.56,4.12,8.46,8.77,8.3c4.69-0.16,8.12-3.66,8.16-8.3
		C125.4,326.29,121.63,322.72,116.68,322.83z"/>
	<path class="st1" d="M427.19,322.91c-4.88,0.07-8.09,3.29-8.1,8.13c-0.01,4.86,3.68,8.48,8.53,8.34c4.31-0.12,8.34-4.14,8.33-8.29
		C435.92,326.33,432.18,322.83,427.19,322.91z"/>
	<path d="M59.3,216.31c1.21,0,2.39-0.1,3.55-0.28h-6.94C57.01,216.19,58.14,216.31,59.3,216.31z"/>
	<path d="M317.18,253.72c-9.1-0.38-18.24-0.39-27.33-0.02c-4.69,0.19-7.76,3.88-7.6,7.68c0.18,3.99,3.23,6.96,8.03,7.25
		c4.3,0.26,8.62,0.05,12.93,0.06c4.48,0,8.97,0.21,13.43-0.05c4.91-0.28,7.91-3.15,8.12-7.19
		C324.97,257.71,321.83,253.92,317.18,253.72z"/>
	<path d="M117.08,307.4c-12.58-0.1-23.55,10.43-23.83,22.85c-0.29,13.27,10.06,24,23.29,24.15c13.31,0.15,24.14-10.33,24.15-23.37
		C140.72,318.38,129.85,307.51,117.08,307.4z M117.19,339.36c-4.66,0.16-8.78-3.74-8.77-8.3c0.01-4.48,3.67-8.14,8.26-8.24
		c4.96-0.1,8.72,3.47,8.68,8.23C125.32,335.7,121.88,339.19,117.19,339.36z"/>
	<path d="M427.31,307.39c-12.7-0.11-23.43,10.71-23.47,23.65c-0.04,12.96,10.44,23.41,23.47,23.4c13.47,0,23.64-10.2,23.63-23.67
		C450.93,317.95,440.36,307.49,427.31,307.39z M427.62,339.38c-4.85,0.13-8.54-3.48-8.53-8.34c0.01-4.83,3.22-8.05,8.1-8.13
		c4.99-0.08,8.73,3.43,8.76,8.18C435.96,335.24,431.93,339.26,427.62,339.38z"/>
	<path class="st0" d="M70.49,141.84c3.55,0,6.52-3.08,6.48-6.73c-0.04-3.55-3.27-6.91-6.69-6.49c-3.63,0.44-6.09,2.55-6.3,6.45
		C63.79,138.6,67.01,141.84,70.49,141.84z"/>
	<path class="st0" d="M86.02,70.2c10.29,1.25,11.71,3.24,9.36,13.09c-2.49,10.4,3.91,19.9,14.53,21.58
		c9.11,1.44,18.18-5.94,19.08-15.54c0.86-9.07-5.09-16.53-14.6-18.31c-7.91-1.48-9.96-5.35-7.08-12.76
		c1.12-2.89,1.62-6.01,2.22-8.35c-0.46-2.81-0.57-4.83-1.14-6.71c-3.15-10.43-13.28-16.61-24.05-14.79
		c-9.69,1.64-17.43,10.98-17.35,20.93C67.08,60.09,75.09,68.87,86.02,70.2z"/>
	<path class="st0" d="M59.59,188.06c-3.88,0.09-6.19,2.31-6.65,6.13c-0.41,3.44,2.85,6.87,6.36,6.96c3.33,0.09,6.54-2.86,6.71-6.16
		C66.19,191.41,63.17,187.98,59.59,188.06z"/>
	<path d="M75.61,83.21c2.86,1.13,4.44,2.36,4.05,5.6c-0.16,1.28,0.26,2.64,0.46,3.96c2.25,14.31,13.52,25.23,28.08,27.22
		c13.46,1.84,27.61-6.29,33.2-19.08c5.91-13.52,2.62-28.94-9.15-37.78c-5.62-4.22-11.1-7.43-7.74-14.32
		C122.24,19.41,92.14,3.61,69.05,18.5c-12.12,7.81-18.04,19.19-16.96,33.43C53.24,67.03,61.44,77.63,75.61,83.21z M84.34,28.42
		c10.77-1.82,20.91,4.36,24.05,14.79c0.57,1.88,0.68,3.9,1.14,6.71c-0.6,2.33-1.1,5.46-2.22,8.35c-2.87,7.41-0.82,11.28,7.08,12.76
		c9.51,1.78,15.46,9.24,14.6,18.31c-0.91,9.6-9.97,16.98-19.08,15.54c-10.63-1.68-17.02-11.18-14.53-21.58
		c2.35-9.84,0.93-11.83-9.36-13.09c-10.93-1.33-18.94-10.11-19.03-20.86C66.91,39.39,74.65,30.06,84.34,28.42z"/>
	<path d="M70.47,157.13c11.8,0.04,21.8-10.01,21.86-21.98c0.05-11.86-9.94-21.7-22.02-21.68c-11.87,0.02-21.41,9.63-21.45,21.61
		C48.82,147.35,58.36,157.08,70.47,157.13z M70.28,128.62c3.42-0.42,6.65,2.94,6.69,6.49c0.04,3.65-2.93,6.73-6.48,6.73
		c-3.49,0-6.7-3.24-6.51-6.77C64.19,131.17,66.65,129.06,70.28,128.62z"/>
	<path d="M81.31,194.53c-0.02-11.81-9.86-21.63-21.69-21.61c-12.45,0.02-21.79,9.36-21.76,21.77c0.02,10.95,7.72,19.73,18.04,21.33
		h6.94C73.36,214.35,81.33,205.4,81.31,194.53z M59.3,201.16c-3.51-0.09-6.77-3.52-6.36-6.96c0.46-3.82,2.77-6.04,6.65-6.13
		c3.58-0.08,6.6,3.35,6.42,6.93C65.84,198.3,62.64,201.25,59.3,201.16z"/>
</g>
</svg>
