<?xml version="1.0" encoding="utf-8"?>
<!-- Generator: Adobe Illustrator 24.0.0, SVG Export Plug-In . SVG Version: 6.00 Build 0)  -->
<svg version="1.1" id="Layer_1" xmlns="http://www.w3.org/2000/svg" xmlns:xlink="http://www.w3.org/1999/xlink" x="0px" y="0px"
	 viewBox="0 0 520.06 390.04" style="enable-background:new 0 0 520.06 390.04;" xml:space="preserve">
<style type="text/css">
	.st0{fill:#FFD900;}
	.st1{fill:#282828;}
</style>
<path class="st0" d="M91.87,259.23c0-13.29,10.77-24.07,24.07-24.07S140,245.94,140,259.23"/>
<g>
	<path class="st1" d="M468.44,260.68h6.28l-20.92-39.81c-1.62,1.35-3.43,2.54-5.42,3.56L468.44,260.68z"/>
	<path class="st1" d="M292.88,170.05h-14.63c-2.16,0-3.71,0.95-4.66,2.85l-22.4,39.88l-22.27-39.88c-0.95-1.9-2.5-2.85-4.66-2.85
		h-14.63c-0.95,0-1.75,0.32-2.4,0.97c-0.65,0.65-0.97,1.45-0.97,2.4v84.03c0,0.95,0.32,1.73,0.97,2.33c0.65,0.61,1.44,0.91,2.4,0.91
		h16.31c0.95,0,1.75-0.3,2.4-0.91c0.65-0.6,0.97-1.38,0.97-2.33v-47.13l13.85,25.64c1.29,1.99,2.8,2.98,4.53,2.98h6.99
		c1.9,0,3.41-0.99,4.53-2.98l13.98-25.64v47.13c0,0.86,0.32,1.62,0.97,2.27c0.65,0.65,1.4,0.97,2.27,0.97h16.44
		c0.95,0,1.75-0.3,2.4-0.91c0.65-0.6,0.97-1.38,0.97-2.33v-84.03c0-0.95-0.32-1.75-0.97-2.4
		C294.63,170.37,293.83,170.05,292.88,170.05z"/>
	<path class="st1" d="M381.24,170.05h-16.96c-1.29,0-2.35,0.35-3.17,1.04c-0.82,0.69-1.36,1.51-1.62,2.46l-17.74,58.52l-17.61-58.52
		c-0.26-0.86-0.8-1.66-1.62-2.4c-0.82-0.73-1.88-1.1-3.17-1.1H302.4c-0.78,0-1.45,0.28-2.01,0.84c-0.56,0.56-0.84,1.19-0.84,1.88
		l0.26,1.17l26.15,82.86c0.34,1.12,0.97,2.05,1.88,2.78c0.91,0.73,2.09,1.1,3.56,1.1h20.84c1.47,0,2.65-0.37,3.56-1.1
		c0.91-0.73,1.49-1.66,1.75-2.78l26.28-82.86c0.09-0.34,0.13-0.73,0.13-1.17c0-0.69-0.26-1.31-0.78-1.88
		C382.67,170.33,382.02,170.05,381.24,170.05z"/>
	<path class="st1" d="M443.91,251.54l-21.17-38.26l-9.23-5.45c-0.73-0.43-1.17-1.22-1.17-2.06l0.11-12.01
		c0.01-0.59,0.24-1.14,0.62-1.56l-1.1-1.95l6.14-4.32l5.59-2.45l1.17,2.08c0.54-0.09,1.11-0.01,1.6,0.28l10.34,6.1
		c0.73,0.43,1.17,1.22,1.17,2.06l-0.11,11.47l7.95,14.37l5.57-3.51l2.38,4.53c2-1.67,3.73-3.59,5.17-5.76
		c2.8-4.23,4.21-9.36,4.21-15.41c0-9.41-3.22-16.7-9.65-21.88c-6.43-5.18-15.34-7.77-26.74-7.77h-35.6c-0.95,0-1.73,0.32-2.33,0.97
		c-0.6,0.65-0.91,1.45-0.91,2.4v84.03c0,0.86,0.32,1.62,0.97,2.27c0.65,0.65,1.4,0.97,2.27,0.97h17.74c0.95,0,1.75-0.3,2.4-0.91
		c0.65-0.6,0.97-1.38,0.97-2.33v-28.35h12.43l14.24,28.09c1.04,2.33,2.8,3.5,5.31,3.5h2.02l-1.94-4.33L443.91,251.54z"/>
	<polygon class="st1" points="444.36,256.34 446.29,260.68 448.97,260.68 443.91,251.54 	"/>
	<path class="st1" d="M445.85,219.85l2.54,4.58c1.99-1.03,3.8-2.21,5.42-3.56l-2.38-4.53L445.85,219.85z"/>
	<path class="st1" d="M424.12,185.81c0.24-0.14,0.5-0.21,0.77-0.26l-1.17-2.08l-5.59,2.45l-6.14,4.32l1.1,1.95
		c0.17-0.19,0.36-0.36,0.58-0.48L424.12,185.81z"/>
	<path class="st1" d="M425.17,187.18c0.22,0,0.43,0.02,0.65,0.03l-0.93-1.66c-0.27,0.05-0.53,0.12-0.77,0.26l-10.46,5.91
		c-0.23,0.13-0.41,0.3-0.58,0.48l0.92,1.64C416.15,189.87,420.35,187.18,425.17,187.18z"/>
	<path class="st1" d="M426.82,202.75l3.91-6.77l-4.91-8.76c-0.22-0.01-0.43-0.03-0.65-0.03c-4.83,0-9.02,2.69-11.17,6.66l5,8.91
		H426.82z"/>
	<polygon class="st0" points="431.67,211.82 441.98,230.44 441.27,222.73 435.22,211.81 	"/>
	<polygon class="st0" points="431.67,211.82 430.01,211.82 428.56,212.64 442.69,238.18 441.98,230.44 	"/>
	<polygon class="st0" points="441.98,230.44 458.7,260.68 462.26,260.68 441.27,222.73 	"/>
	<polygon class="st0" points="442.69,238.18 455.13,260.68 458.7,260.68 441.98,230.44 	"/>
	<path class="st0" d="M428.3,212.18l0.25,0.46l1.45-0.82l-0.53,0C429.09,211.96,428.7,212.08,428.3,212.18z"/>
	<path class="st0" d="M428.11,211.83l0.2,0.35c0.4-0.1,0.79-0.22,1.17-0.36L428.11,211.83z"/>
</g>
<path class="st1" d="M65.23,302.73h-6.88v-13.41l-3.98,6.92h-4.4L46,289.32v13.41h-6.88v-28.01h6.76l6.28,12.35l6.3-12.35h6.76
	V302.73z"/>
<path class="st1" d="M90.53,288.73v0.94c0,1.56-0.05,2.91-0.16,4.03c-0.11,1.13-0.37,2.22-0.78,3.27c-0.41,1.05-1.04,2-1.88,2.84
	c-1.04,1.04-2.18,1.82-3.43,2.35c-1.25,0.53-2.72,0.8-4.4,0.8c-1.14,0-2.17-0.12-3.08-0.36c-0.91-0.24-1.76-0.59-2.53-1.05
	c-0.77-0.46-1.51-1.04-2.2-1.75c-1.23-1.23-2.01-2.63-2.34-4.19c-0.33-1.56-0.5-3.55-0.5-5.96v-0.94v-0.94c0-2.41,0.17-4.4,0.5-5.97
	c0.33-1.57,1.11-2.97,2.34-4.2c1.06-1.06,2.21-1.85,3.45-2.36c1.23-0.51,2.69-0.77,4.37-0.77c1.69,0,3.15,0.26,4.4,0.78
	c1.24,0.52,2.39,1.3,3.44,2.35c0.84,0.85,1.47,1.8,1.88,2.85c0.41,1.06,0.67,2.15,0.78,3.28c0.11,1.13,0.16,2.47,0.16,4.03V288.73z
	 M83.65,288.73c0-2.38-0.08-4.01-0.24-4.88c-0.16-0.87-0.42-1.54-0.78-2c-0.26-0.36-0.63-0.65-1.12-0.88
	c-0.49-0.23-1.04-0.35-1.64-0.35c-0.59,0-1.12,0.11-1.59,0.34c-0.47,0.22-0.86,0.52-1.15,0.89c-0.23,0.29-0.42,0.66-0.57,1.09
	c-0.15,0.43-0.26,1.09-0.34,1.98c-0.08,0.89-0.12,2.16-0.12,3.81c0,1.64,0.04,2.9,0.12,3.79c0.08,0.89,0.19,1.55,0.34,1.97
	c0.15,0.42,0.34,0.78,0.57,1.08c0.65,0.85,1.57,1.27,2.75,1.27c1.19,0,2.11-0.42,2.77-1.27c0.36-0.5,0.62-1.17,0.78-2.01
	C83.57,292.72,83.65,291.11,83.65,288.73z"/>
<path class="st1" d="M113.53,280.85h-6.9v21.88h-6.88v-21.88h-6.9v-6.13h20.67V280.85z"/>
<path class="st1" d="M137.16,288.73v0.94c0,1.56-0.05,2.91-0.16,4.03c-0.11,1.13-0.37,2.22-0.78,3.27c-0.41,1.05-1.04,2-1.88,2.84
	c-1.04,1.04-2.18,1.82-3.43,2.35c-1.25,0.53-2.72,0.8-4.4,0.8c-1.14,0-2.17-0.12-3.08-0.36c-0.91-0.24-1.76-0.59-2.53-1.05
	c-0.77-0.46-1.51-1.04-2.2-1.75c-1.23-1.23-2.01-2.63-2.34-4.19c-0.33-1.56-0.5-3.55-0.5-5.96v-0.94v-0.94c0-2.41,0.17-4.4,0.5-5.97
	c0.33-1.57,1.11-2.97,2.34-4.2c1.06-1.06,2.21-1.85,3.45-2.36c1.23-0.51,2.69-0.77,4.37-0.77c1.69,0,3.15,0.26,4.4,0.78
	c1.24,0.52,2.39,1.3,3.44,2.35c0.84,0.85,1.47,1.8,1.88,2.85c0.41,1.06,0.67,2.15,0.78,3.28c0.11,1.13,0.16,2.47,0.16,4.03V288.73z
	 M130.28,288.73c0-2.38-0.08-4.01-0.24-4.88c-0.16-0.87-0.42-1.54-0.78-2c-0.26-0.36-0.63-0.65-1.12-0.88
	c-0.49-0.23-1.04-0.35-1.64-0.35c-0.59,0-1.12,0.11-1.59,0.34c-0.47,0.22-0.86,0.52-1.15,0.89c-0.23,0.29-0.42,0.66-0.57,1.09
	c-0.15,0.43-0.26,1.09-0.34,1.98c-0.08,0.89-0.12,2.16-0.12,3.81c0,1.64,0.04,2.9,0.12,3.79c0.08,0.89,0.19,1.55,0.34,1.97
	c0.15,0.42,0.34,0.78,0.57,1.08c0.65,0.85,1.57,1.27,2.75,1.27c1.19,0,2.11-0.42,2.77-1.27c0.36-0.5,0.62-1.17,0.78-2.01
	C130.2,292.72,130.28,291.11,130.28,288.73z"/>
<path class="st1" d="M163.29,302.73h-7.95l-4.97-10.43h-2.33v10.43h-6.88v-28.01h11.09c2.01,0,3.73,0.42,5.16,1.26
	c1.43,0.84,2.52,1.94,3.27,3.31c0.75,1.37,1.12,2.85,1.12,4.44c0,1.75-0.44,3.26-1.33,4.51c-0.89,1.25-1.96,2.19-3.23,2.81
	L163.29,302.73z M154.93,283.74c0-0.5-0.12-0.96-0.36-1.4c-0.24-0.43-0.58-0.78-1.04-1.04c-0.46-0.26-0.99-0.39-1.59-0.39h-3.91
	v5.65h3.91c0.6,0,1.13-0.13,1.59-0.39c0.46-0.26,0.8-0.61,1.04-1.03C154.81,284.7,154.93,284.24,154.93,283.74z"/>
<path class="st1" d="M194.78,274.72l-9.28,28.01h-5.13l-9.24-28.01h7.13l4.71,15.66l4.65-15.66H194.78z"/>
<path class="st1" d="M215.87,302.73h-19.04v-28.01h19.04v6.13h-12.16v4.69h10.39v6.13h-10.39v4.94h12.16V302.73z"/>
<path class="st1" d="M241.04,302.73h-6.88v-11.1h-7.32v11.1h-6.88v-28.01h6.88v10.78h7.32v-10.78h6.88V302.73z"/>
<path class="st1" d="M252.82,302.73h-6.88v-28.01h6.88V302.73z"/>
<path class="st1" d="M278.02,293.84c-0.24,1.49-0.68,2.81-1.31,3.99c-0.63,1.17-1.42,2.14-2.36,2.89c-0.94,0.76-2,1.32-3.18,1.69
	c-1.18,0.37-2.43,0.56-3.76,0.56c-3.11,0-5.7-1.05-7.77-3.15c-1.23-1.23-2.01-2.63-2.34-4.19c-0.33-1.56-0.5-3.55-0.5-5.96v-0.94
	v-0.94c0-2.41,0.17-4.4,0.5-5.97c0.33-1.57,1.11-2.97,2.34-4.2c1.05-1.05,2.2-1.83,3.45-2.35c1.25-0.52,2.69-0.78,4.32-0.78
	c1.39,0,2.67,0.19,3.84,0.57c1.16,0.38,2.21,0.94,3.13,1.69c0.92,0.75,1.7,1.7,2.33,2.86c0.63,1.16,1.07,2.49,1.31,4.01h-6.99
	c-0.24-0.91-0.64-1.64-1.18-2.18c-0.54-0.54-1.35-0.82-2.41-0.82c-0.59,0-1.12,0.11-1.58,0.33c-0.47,0.22-0.84,0.5-1.12,0.85
	c-0.24,0.31-0.44,0.68-0.59,1.1c-0.15,0.43-0.26,1.08-0.35,1.96c-0.08,0.88-0.12,2.17-0.12,3.87c0,2.27,0.08,3.86,0.25,4.77
	c0.17,0.92,0.44,1.63,0.81,2.14c0.61,0.79,1.52,1.19,2.71,1.19c1.04,0,1.83-0.27,2.39-0.82c0.56-0.54,0.96-1.27,1.2-2.18H278.02z"/>
<path class="st1" d="M299.5,302.73h-18.64v-28.01h6.88v21.88h11.76V302.73z"/>
<path class="st1" d="M321.79,302.73h-19.04v-28.01h19.04v6.13h-12.16v4.69h10.39v6.13h-10.39v4.94h12.16V302.73z"/>
<path class="st1" d="M355.97,302.73h-7.95l-4.97-10.43h-2.33v10.43h-6.88v-28.01h11.09c2.01,0,3.73,0.42,5.16,1.26
	c1.43,0.84,2.52,1.94,3.27,3.31c0.75,1.37,1.12,2.85,1.12,4.44c0,1.75-0.44,3.26-1.33,4.51c-0.89,1.25-1.96,2.19-3.23,2.81
	L355.97,302.73z M347.61,283.74c0-0.5-0.12-0.96-0.36-1.4c-0.24-0.43-0.58-0.78-1.04-1.04c-0.46-0.26-0.99-0.39-1.59-0.39h-3.91
	v5.65h3.91c0.6,0,1.13-0.13,1.59-0.39c0.46-0.26,0.8-0.61,1.04-1.03C347.49,284.7,347.61,284.24,347.61,283.74z"/>
<path class="st1" d="M377.73,302.73H358.7v-28.01h19.04v6.13h-12.16v4.69h10.39v6.13h-10.39v4.94h12.16V302.73z"/>
<path class="st1" d="M402.48,283.73c0,1.58-0.37,3.05-1.12,4.42c-0.75,1.37-1.84,2.48-3.28,3.32c-1.43,0.85-3.16,1.27-5.17,1.27
	h-4.21v9.99h-6.88v-28.01h11.09c2.01,0,3.73,0.42,5.16,1.26s2.52,1.94,3.27,3.31C402.1,280.67,402.48,282.14,402.48,283.73z
	 M395.6,283.74c0-0.5-0.12-0.96-0.36-1.4c-0.24-0.43-0.58-0.78-1.04-1.04c-0.46-0.26-0.99-0.39-1.59-0.39h-3.91v5.65h3.91
	c0.6,0,1.13-0.13,1.59-0.39c0.46-0.26,0.8-0.61,1.04-1.03C395.48,284.7,395.6,284.24,395.6,283.74z"/>
<path class="st1" d="M428.55,302.73h-7.19l-1.31-4.17h-8.63l-1.36,4.17h-7.2l10.18-28.01h5.32L428.55,302.73z M418.25,292.82
	l-2.36-7.47l-2.52,7.47H418.25z"/>
<path class="st1" d="M437.48,302.73h-6.88v-28.01h6.88V302.73z"/>
<path class="st1" d="M464.5,302.73h-7.95l-4.97-10.43h-2.33v10.43h-6.88v-28.01h11.09c2.01,0,3.73,0.42,5.16,1.26
	c1.43,0.84,2.52,1.94,3.27,3.31c0.75,1.37,1.12,2.85,1.12,4.44c0,1.75-0.44,3.26-1.33,4.51c-0.89,1.25-1.96,2.19-3.23,2.81
	L464.5,302.73z M456.14,283.74c0-0.5-0.12-0.96-0.36-1.4c-0.24-0.43-0.58-0.78-1.04-1.04c-0.46-0.26-0.99-0.39-1.59-0.39h-3.91v5.65
	h3.91c0.6,0,1.13-0.13,1.59-0.39c0.46-0.26,0.8-0.61,1.04-1.03C456.02,284.7,456.14,284.24,456.14,283.74z"/>
<path class="st1" d="M486.01,294.16c0,1.83-0.48,3.41-1.45,4.75c-0.97,1.33-2.27,2.34-3.92,3.03c-1.65,0.69-3.46,1.03-5.45,1.03
	c-2.32,0-4.34-0.28-6.05-0.83c-1.72-0.55-3.24-1.5-4.57-2.86l4.42-4.42c0.69,0.69,1.6,1.19,2.73,1.51c1.13,0.31,2.3,0.47,3.52,0.47
	c2.68,0,4.02-0.84,4.02-2.52c0-0.72-0.19-1.27-0.56-1.65c-0.37-0.38-0.99-0.63-1.84-0.75l-3.38-0.48c-2.48-0.35-4.36-1.17-5.63-2.48
	c-1.28-1.32-1.92-3.2-1.92-5.63c0-1.7,0.41-3.22,1.24-4.56c0.83-1.34,2.01-2.39,3.55-3.14c1.54-0.76,3.35-1.13,5.43-1.13
	c2.06,0,3.86,0.27,5.41,0.8c1.54,0.53,2.89,1.38,4.04,2.55l-4.32,4.32c-0.72-0.72-1.49-1.17-2.32-1.36c-0.83-0.19-1.83-0.29-3-0.29
	c-1.1,0-1.94,0.26-2.52,0.79c-0.58,0.53-0.86,1.13-0.86,1.81c0,0.5,0.19,0.93,0.56,1.31c0.44,0.44,1.08,0.71,1.92,0.83l3.38,0.46
	c2.46,0.36,4.3,1.13,5.51,2.32c0.73,0.7,1.26,1.56,1.58,2.56C485.85,291.59,486.01,292.78,486.01,294.16z"/>
<path class="st1" d="M48.2,225.35h-6.15c-1.92,0-3.47-1.55-3.47-3.47v-3.93c0-15.09,12.28-27.37,27.37-27.37h8.11
	c1.15,0,2.22,0.57,2.86,1.51c0.65,0.94,0.79,2.15,0.37,3.22l-5.34,13.78C68.18,218.81,58.63,225.35,48.2,225.35z M45.52,218.4h2.68
	c7.59,0,14.54-4.76,17.28-11.84l3.51-9.05h-3.04c-11.26,0-20.43,9.16-20.43,20.43V218.4z"/>
<path class="st1" d="M111.63,158.23v21.55c0,0-12.18-0.7-15.66-2.78c-3.48-2.09,1.22-5.57,1.22-5.57S103.16,162.32,111.63,158.23z"
	/>
<path class="st1" d="M111.63,183.25c-0.07,0-0.13,0-0.2-0.01c-3.06-0.17-13.34-0.93-17.24-3.27c-2.45-1.47-2.91-3.53-2.96-4.62
	c-0.14-2.96,2.15-5.28,3.4-6.32c1.45-2.07,7.34-9.99,15.5-13.93c1.08-0.52,2.34-0.45,3.36,0.19c1.01,0.64,1.63,1.75,1.63,2.94v21.55
	c0,0.96-0.39,1.87-1.09,2.52C113.36,182.91,112.51,183.25,111.63,183.25z"/>
<path class="st1" d="M192.92,260.68c-0.01,0-0.01,0-0.02,0l-39.21-0.23c-1.81-0.01-3.31-1.41-3.44-3.21
	c-0.11-1.36-2.98-33.38-34.5-33.38c-31.43,0-33.4,31.93-33.47,33.29c-0.09,1.85-1.62,3.3-3.47,3.3c-3.3,0-10.98-0.07-13.64-0.18
	c-1.92-0.08-3.4-1.7-3.32-3.62c0.08-1.92,1.71-3.42,3.62-3.32c1.89,0.08,6.66,0.14,10.26,0.16c1.5-9.58,8.52-36.58,40.01-36.58
	c31.55,0,39.24,27.16,40.96,36.61l6.3,0.04c0.21-0.04,0.42-0.07,0.64-0.05l29.29,0.23c1.92,0.02,3.46,1.58,3.44,3.5
	C196.37,259.14,194.82,260.68,192.92,260.68z"/>
<path class="st1" d="M77.35,229.17H38.77c-0.94,0-1.85-0.39-2.5-1.06c-0.65-0.68-1-1.6-0.97-2.54c0.41-10.67,2.04-18.92,4.84-24.51
	c7.3-14.6,46.15-29.61,53.22-32.24l62.98-59.17c14.36-13.49,33.12-21.33,52.81-22.06l8.92-0.33c23.76-0.88,105.45-1.14,129.89-0.72
	l85.26,1.44c1.92,0.03,3.44,1.61,3.41,3.53c-0.03,1.9-1.58,3.41-3.47,3.41c-0.02,0-0.04,0-0.06,0l-85.26-1.44
	c-24.38-0.41-105.84-0.16-129.51,0.72l-8.92,0.33c-18.02,0.67-35.18,7.83-48.32,20.18L97.6,174.36c-0.34,0.32-0.74,0.57-1.18,0.73
	c-12.1,4.44-44.69,18.31-50.07,29.07c-2.02,4.04-3.36,10.24-3.91,18.07h34.91c1.92,0,3.47,1.55,3.47,3.47S79.26,229.17,77.35,229.17
	z"/>
<path class="st1" d="M459.38,95.37c-0.02,0-0.04,0-0.06,0l-11.46-0.19c-1.92-0.03-3.44-1.61-3.41-3.53c0.03-1.9,1.58-3.41,3.47-3.41
	c0.02,0,0.04,0,0.06,0l11.46,0.19c1.92,0.03,3.44,1.61,3.41,3.53C462.81,93.85,461.27,95.37,459.38,95.37z"/>
<path class="st1" d="M77.52,260.28h-7.2c-0.05,0-0.1,0-0.15,0c-1.74-0.07-3.45-0.17-5.09-0.3c-1.91-0.14-3.35-1.81-3.2-3.72
	c0.14-1.91,1.81-3.33,3.72-3.2c1.51,0.11,3.1,0.21,4.79,0.28h7.13c1.92,0,3.47,1.55,3.47,3.47
	C80.99,258.72,79.44,260.28,77.52,260.28z"/>
<path class="st1" d="M65.35,259.99c-0.09,0-0.08,0.29-0.17,0.29c-25.36-1.91-28.83-9.4-29.05-12.58
	c-0.12-1.15-1.15-11.03-0.72-22.13c0.07-1.86,1.6-3.34,3.47-3.34h56.87c1.92,0,3.47,1.55,3.47,3.47s-1.55,3.47-3.47,3.47H42.26
	c-0.11,8.71,0.61,16.2,0.75,17.61c0.4,0.65,3.75,4.85,22.59,6.27c1.91,0.14,3.35,1.81,3.2,3.72
	C68.67,258.6,67.14,259.99,65.35,259.99z M43.05,247.2c0,0.02,0,0.05,0,0.07C43.05,247.25,43.05,247.22,43.05,247.2z"/>
<path class="st1" d="M188.66,176.99h-79.82c-1.92,0-3.47-1.55-3.47-3.47s1.55-3.47,3.47-3.47h79.82c1.21,0,2.2-0.96,2.2-2.14v-34.99
	c0-1.18-0.99-2.14-2.2-2.14h-44.82c-1.92,0-10.23,11.66-10.23,9.75s8.31-16.69,10.23-16.69h44.82c5.04,0,9.14,4.08,9.14,9.09v34.99
	C197.81,172.91,193.71,176.99,188.66,176.99z"/>
<path class="st1" d="M195.25,228.97H140c-1.92,0-8.51-1.55-8.51-3.47s1.55-3.47,3.47-3.47h60.29c1.92,0,3.47,1.55,3.47,3.47
	S197.17,228.97,195.25,228.97z"/>
<path class="st1" d="M334.95,130.77h-159.2c-1.92,0-3.47-1.55-3.47-3.47s1.55-3.47,3.47-3.47h159.2c1.92,0,3.47,1.55,3.47,3.47
	S336.87,130.77,334.95,130.77z"/>
<path class="st1" d="M249.07,176.99H120.95c-1.92,0-3.47-1.55-3.47-3.47s1.55-3.47,3.47-3.47h128.12c1.92,0,3.47,1.55,3.47,3.47
	S250.99,176.99,249.07,176.99z"/>
<path class="st1" d="M356.81,130.77h-9.96c-1.92,0-3.47-1.55-3.47-3.47s1.55-3.47,3.47-3.47h9.96c1.92,0,3.47,1.55,3.47,3.47
	S358.72,130.77,356.81,130.77z"/>
<path class="st1" d="M103.16,197.51h-29.1c-1.92,0-3.47-1.55-3.47-3.47s1.55-3.47,3.47-3.47h29.1c1.92,0,3.47,1.55,3.47,3.47
	S105.07,197.51,103.16,197.51z"/>
<path class="st1" d="M139.44,261.52c-1.92,0-3.47-1.55-3.47-3.47c0-11.05-8.99-20.03-20.03-20.03c-11.05,0-20.03,8.99-20.03,20.03
	c0,1.92-1.55,3.47-3.47,3.47s-3.47-1.55-3.47-3.47c0-14.88,12.1-26.98,26.98-26.98c14.88,0,26.98,12.1,26.98,26.98
	C142.91,259.97,141.36,261.52,139.44,261.52z"/>
<path class="st1" d="M310.92,176.99h-22.03c-1.92,0-3.47-1.55-3.47-3.47s1.55-3.47,3.47-3.47h22.03c1.92,0,3.47,1.55,3.47,3.47
	S312.84,176.99,310.92,176.99z"/>
</svg>
